# xmcd
#
# Track frame offsets:
#	150
#	16535
#	37250
#	52460
#	69785
#	86217
#	109890
#	126932
#	142755
#	160225
#	191967
#	206402
#
# Disc length: 3181 seconds
#
# Revision: 1
# Processed by: cddbd v1.4b41PL2 Copyright (c) Steve Scherf et al.
# Submitted via: audiograbber 1.80
#
DISCID=ac0c6b0c
DTITLE=Lynyrd Skynyrd by Various Artists - The Blues Tribute To Lynyrd Skynyrd
DYEAR=1900
DGENRE=
TTITLE0=Gimme Back My Bullets
TTITLE1=The Ballad Of Curtis Loew
TTITLE2=That Smell
TTITLE3=What's Your Name
TTITLE4=Saturday Night Special
TTITLE5=Free Bird
TTITLE6=Gimme Three Steps
TTITLE7=Tuesday's Gone
TTITLE8=I Know A Little
TTITLE9=Sweet Home Alabama
TTITLE10=Swamp Music
TTITLE11=Simple Man
EXTD=
EXTT0=
EXTT1=
EXTT2=
EXTT3=
EXTT4=
EXTT5=
EXTT6=
EXTT7=
EXTT8=
EXTT9=
EXTT10=
EXTT11=
PLAYORDER=
